<svg xmlns="http://www.w3.org/2000/svg" width="181" height="58.812" viewBox="0 0 181 58.812">
  <g id="Groupe_84" data-name="Groupe 84" transform="translate(-864 -25.188)">
    <g id="Calque_1" data-name="Calque 1" transform="translate(682.103 -364.408)">
      <g id="Groupe_2" data-name="Groupe 2" transform="translate(239.852 389.596)">
        <g id="Groupe_1" data-name="Groupe 1" transform="translate(0)">
          <path id="Tracé_1" data-name="Tracé 1" d="M258.122,411.783h-2.756a2.563,2.563,0,0,1-2.678-2.677V398.4a3.238,3.238,0,0,0-1.141-2.755,4.131,4.131,0,0,0-2.559-.867,3.968,3.968,0,0,0-2.52.867,3.289,3.289,0,0,0-1.1,2.755v13.387h-5.512V399.5q0-5.354,2.8-7.166a12.217,12.217,0,0,1,6.182-1.969,11.854,11.854,0,0,1,6.379,1.811q2.912,1.812,2.914,7.324Z" transform="translate(-239.852 -389.945)" fill="#002f6c"/>
          <path id="Tracé_2" data-name="Tracé 2" d="M283.5,400.463h-2.284a1.88,1.88,0,0,1-2.127-2.127V389.6h4.41Z" transform="translate(-257.671 -389.596)" fill="#002f6c"/>
          <path id="Tracé_3" data-name="Tracé 3" d="M298.452,416.823a2.687,2.687,0,0,1-2.677,2.677H293.1V399.892q0-5.512,3.228-7.521a13.027,13.027,0,0,1,7.009-2.008,11.351,11.351,0,0,1,3.977.749,7.42,7.42,0,0,1,3.189,2.165,12.548,12.548,0,0,1,2.362,7.875,12.813,12.813,0,0,1-2.362,8.033,7.387,7.387,0,0,1-6.063,2.992,8.009,8.009,0,0,1-3.465-.708,5.922,5.922,0,0,1-2.52-2.441Zm8.977-15.435a8.054,8.054,0,0,0-1.181-4.725,3.91,3.91,0,0,0-3.386-1.653,3.832,3.832,0,0,0-3.308,1.653,8.038,8.038,0,0,0-1.1,4.725,7.159,7.159,0,0,0,1.181,4.488,3.912,3.912,0,0,0,3.387,1.654,3.76,3.76,0,0,0,3.229-1.654,7.586,7.586,0,0,0,1.181-4.488" transform="translate(-264.034 -389.944)" fill="#002f6c"/>
          <path id="Tracé_4" data-name="Tracé 4" d="M334.032,419.579v-4.331h1.5a3.784,3.784,0,0,0,2.481-.748q.9-.749.355-2.4l-7.323-20.868H337.1l4.253,14.8,3.7-12.915a2.326,2.326,0,0,1,2.521-1.89h3.779l-8.032,23.861a8.07,8.07,0,0,1-2.362,3.7,8.661,8.661,0,0,1-4.646.945h-1.1a2.861,2.861,0,0,0-.591-.118,5.249,5.249,0,0,0-.591-.039" transform="translate(-281.266 -390.338)" fill="#002f6c"/>
        </g>
      </g>
    </g>
    <text id="NOUVELLES_PYRÉNÉES" data-name="NOUVELLES PYRÉNÉES" transform="translate(864 80)" fill="#002f6c" font-size="16" font-family="Raleway-Regular, Raleway"><tspan x="0" y="0">NOUVELLES </tspan><tspan y="0" font-family="Raleway-Bold, Raleway" font-weight="700">PYRÉNÉES</tspan></text>
  </g>
</svg>
